# xmcd
#
# Track frame offsets: 
#        150
#        13613
#        26958
#        40036
#        54101
#        67676
#        81102
#        94954
#        108412
#        120249
#        133611
#        147171
#        160886
#        174147
#        186847
#        200218
#        213515
#        225601
#        239188
#        252384
#
# Disc length: 3547 seconds
#
# Revision: 1
# Processed by: cddbd v1.5.2PL0 Copyright (c) Steve Scherf et al.
# Submitted via: ExactAudioCopy v1.1
#
DISCID=120dd914
DTITLE=Leroy Carr - The Best Of Leroy Carr Whiskey Is My Habit Good Wo
DTITLE=men Is All I Crave disc 2
DYEAR=2004
DGENRE=Blues
TTITLE0=I Believe I'll Make A Change (mono)
TTITLE1=Don't Start No Stuff (mono)
TTITLE2=Bobo Stomp (mono)
TTITLE3=Big Four Blues (mono)
TTITLE4=Hard Hearted Papa (mono)
TTITLE5=You Left Me Crying (mono)
TTITLE6=Evil Hearted Woman (mono)
TTITLE7=Good Woman Blues (mono)
TTITLE8=Hustler's Blues (mono)
TTITLE9=Eleven Twenty-Nine Blues (mono)
TTITLE10=You Got Me Grieving (mono)
TTITLE11=Bread Baker (mono)
TTITLE12=Tight Times Blues (mono)
TTITLE13=Black Wagon Blues (mono)
TTITLE14=Shinin' Pistol (mono)
TTITLE15=It's Too Short (mono)
TTITLE16=My Good for Nothin' Gal (mono)
TTITLE17=Suicide Blues (mono)
TTITLE18=Church House Blues (mono)
TTITLE19=Six Cold Feet In The Ground (mono)
EXTD=
EXTT0=
EXTT1=
EXTT2=
EXTT3=
EXTT4=
EXTT5=
EXTT6=
EXTT7=
EXTT8=
EXTT9=
EXTT10=
EXTT11=
EXTT12=
EXTT13=
EXTT14=
EXTT15=
EXTT16=
EXTT17=
EXTT18=
EXTT19=
PLAYORDER=
